name ./resultDataOpenSim/trcMotMarkerGrf/sub06/grf-01-06.mot
datacolumns 19
datarows 10
range 1.50000000 1.53600000
endheader

                time	     ground_force_vx	     ground_force_vy	     ground_force_vz	     ground_force_px	     ground_force_py	     ground_force_pz	   l_ground_force_vx	   l_ground_force_vy	   l_ground_force_vz	   l_ground_force_px	   l_ground_force_py	   l_ground_force_pz	     ground_torque_x	     ground_torque_y	     ground_torque_z	   l_ground_torque_x	   l_ground_torque_y	   l_ground_torque_z	
          1.50000000	         60.90992150	        565.24538789	          0.54542219	          0.85337889	          0.00000000	          0.07008285	          0.00000000	          0.00000000	          0.00000000	          0.00000000	          0.00000000	          0.00000000	          0.00000000	          3.97244910	          0.00000000	          0.00000000	          0.00000000	          0.00000000	
          1.50400000	         64.65814592	        576.75734440	          1.86199094	          0.85379126	          0.00000000	          0.06965278	          0.00000000	          0.00000000	          0.00000000	          0.00000000	          0.00000000	          0.00000000	          0.00000000	          4.03050046	          0.00000000	          0.00000000	          0.00000000	          0.00000000	
          1.50800000	         68.81243969	        588.33437654	          2.09458577	          0.85415173	          0.00000000	          0.06930081	          0.00000000	          0.00000000	          0.00000000	          0.00000000	          0.00000000	          0.00000000	          0.00000000	          4.11776402	          0.00000000	          0.00000000	          0.00000000	          0.00000000	
          1.51200000	         73.49280043	        599.82740438	          1.18459869	          0.85443324	          0.00000000	          0.06903464	          0.00000000	          0.00000000	          0.00000000	          0.00000000	          0.00000000	          0.00000000	          0.00000000	          4.23138566	          0.00000000	          0.00000000	          0.00000000	          0.00000000	
          1.51600000	         78.72647588	        611.11208439	         -0.74620300	          0.85463029	          0.00000000	          0.06884762	          0.00000000	          0.00000000	          0.00000000	          0.00000000	          0.00000000	          0.00000000	          0.00000000	          4.36127371	          0.00000000	          0.00000000	          0.00000000	          0.00000000	
          1.52000000	         84.43820684	        622.10323243	         -3.41567302	          0.85475182	          0.00000000	          0.06871643	          0.00000000	          0.00000000	          0.00000000	          0.00000000	          0.00000000	          0.00000000	          0.00000000	          4.49343253	          0.00000000	          0.00000000	          0.00000000	          0.00000000	
          1.52400000	         90.47571141	        632.73977454	         -6.43589289	          0.85483392	          0.00000000	          0.06861925	          0.00000000	          0.00000000	          0.00000000	          0.00000000	          0.00000000	          0.00000000	          0.00000000	          4.61311030	          0.00000000	          0.00000000	          0.00000000	          0.00000000	
          1.52800000	         96.64882899	        642.96039645	         -9.38744416	          0.85491542	          0.00000000	          0.06853654	          0.00000000	          0.00000000	          0.00000000	          0.00000000	          0.00000000	          0.00000000	          0.00000000	          4.70678453	          0.00000000	          0.00000000	          0.00000000	          0.00000000	
          1.53200000	        102.77072818	        652.69851810	        -11.89924764	          0.85502601	          0.00000000	          0.06844794	          0.00000000	          0.00000000	          0.00000000	          0.00000000	          0.00000000	          0.00000000	          0.00000000	          4.76317375	          0.00000000	          0.00000000	          0.00000000	          0.00000000	
          1.53600000	        108.69643535	        661.89069674	        -13.71390323	          0.85519844	          0.00000000	          0.06833519	          0.00000000	          0.00000000	          0.00000000	          0.00000000	          0.00000000	          0.00000000	          0.00000000	          4.77409661	          0.00000000	          0.00000000	          0.00000000	          0.00000000	
